<svg aria-hidden="true" style="position: absolute; width: 0; height: 0; overflow: hidden;" version="1.1" xmlns="http://www.w3.org/2000/svg" xmlns:xlink="http://www.w3.org/1999/xlink">
    <defs>
        <symbol id="icon-box-delivery" viewBox="0 0 32 32">
            <path d="M4.88 0.173c-0.21 0-0.415 0.059-0.593 0.169s-0.322 0.269-0.415 0.456l-3.383 6.807c-0.072 0.149-0.11 0.311-0.112 0.476-0.002 0.009-0.005 0.018-0.007 0.026v22.517c0 0.299 0.119 0.586 0.33 0.797s0.498 0.33 0.797 0.33h29.323c0.299-0 0.586-0.119 0.797-0.33s0.33-0.498 0.33-0.797v-22.519c-0.001-0.174-0.041-0.345-0.119-0.5l-3.383-6.807c-0.093-0.188-0.237-0.346-0.415-0.456s-0.384-0.169-0.593-0.169h-22.556zM5.576 2.429h7.003l-0.738 4.551h-8.525l2.26-4.551zM14.861 2.429h4.853l0.76 4.551h-6.348l0.736-4.551zM22 2.429h4.738l2.262 4.551h-6.24l-0.76-4.551zM2.624 9.236h9.023v11.239c0 0.223 0.066 0.441 0.19 0.626s0.3 0.33 0.506 0.415 0.433 0.108 0.651 0.064c0.219-0.043 0.42-0.151 0.577-0.308l3.714-3.714 3.714 3.714c0.158 0.158 0.359 0.265 0.577 0.308s0.445 0.021 0.651-0.064 0.382-0.23 0.506-0.415c0.124-0.185 0.19-0.403 0.19-0.626v-11.239h6.767v20.261h-27.068v-20.261zM13.902 9.236h6.767v8.516l-2.586-2.586c-0.212-0.211-0.498-0.33-0.797-0.33s-0.586 0.119-0.797 0.33l-2.586 2.586v-8.516z"></path>
        </symbol>
        <symbol id="icon-payment-delivery" viewBox="0 0 32 32">
            <path d="M7.966 2.017c-0.088-0.001-0.175 0.015-0.256 0.049s-0.156 0.084-0.218 0.148c-0.063 0.064-0.112 0.14-0.146 0.224s-0.051 0.174-0.051 0.265v1.557l-1.94 2.014v-4.414c-0.001-0.494 0.188-0.969 0.523-1.319 0.339-0.345 0.794-0.539 1.268-0.541h23.265c0.474 0.002 0.929 0.196 1.268 0.541 0.329 0.353 0.515 0.823 0.521 1.314v19.836c0 0.495-0.117 1.065-0.521 1.316-0.337 0.346-0.792 0.54-1.266 0.541h-14.15c-0.086-0.477-0.228-0.94-0.422-1.381l0.625-0.646h13.139c0.174-0.001 0.341-0.074 0.463-0.202s0.192-0.301 0.193-0.482v-18.133c0-0.182-0.070-0.357-0.194-0.486s-0.292-0.201-0.468-0.201h-3.594v7.145l-3.797-1.971-3.779 1.971v-7.145h-10.464zM2.632 21.004l-0.828 4.866c-0.011 0.064-0.038 0.123-0.078 0.173-0.213 0.252-0.358 0.558-0.419 0.887-0.024 0.087-0.024 0.178-0.001 0.265s0.068 0.165 0.131 0.227l3.003 3.125c0.2 0.203 0.454 0.338 0.729 0.387 0.317 0.101 0.654 0.111 0.977 0.030h0.023l0.565-0.146c0.867-0.219 1.623-0.414 2.326-1.081l0.901-0.976c0.011-0.017 0.023-0.032 0.036-0.046 0.013 0 0.102-0.105 0.221-0.222 0.615-0.627 1.38-1.4 0.914-2.076l-0.362-0.376c-0.174 0.176-0.359 0.346-0.536 0.514s-0.315 0.287-0.456 0.433c-0.072 0.074-0.168 0.116-0.27 0.116s-0.198-0.042-0.27-0.116-0.112-0.175-0.112-0.28c0-0.105 0.040-0.206 0.112-0.28 0.138-0.146 0.313-0.305 0.49-0.47 0.612-0.557 1.302-1.198 0.935-1.757l-0.357-0.37-0.052-0.068c-0.206 0.219-0.432 0.427-0.654 0.63-0.161 0.149-0.313 0.287-0.453 0.433-0.072 0.074-0.169 0.115-0.27 0.115s-0.198-0.041-0.27-0.115c-0.036-0.036-0.064-0.080-0.084-0.128s-0.029-0.1-0.029-0.152c0-0.052 0.010-0.104 0.029-0.152s0.048-0.092 0.084-0.128c0.138-0.146 0.313-0.305 0.49-0.468 0.612-0.56 1.302-1.2 0.935-1.76l-0.357-0.37c-0.024-0.026-0.045-0.055-0.062-0.086l-1.042 1.081c-0.071 0.074-0.168 0.116-0.27 0.116s-0.198-0.042-0.27-0.116c-0.071-0.074-0.112-0.175-0.112-0.28s0.040-0.206 0.112-0.28l1.966-2.041c0.471-0.489 0.578-0.998 0.456-1.384-0.044-0.141 0-0.143-0.099-0.243-0.049-0.051-0.104-0.095-0.164-0.132-0.029 0-0.049-0.016-0.078-0.046-0.034-0.017-0.068-0.032-0.104-0.043-0.326-0.114-0.635 0.086-1.063 0.462l-0.018 0.016c-0.047 0.041-0.094 0.084-0.141 0.132l-4.091 4.247c-0.072 0.074-0.169 0.115-0.27 0.115s-0.198-0.041-0.27-0.115c-0.065-0.067-0.105-0.156-0.112-0.251s0.020-0.189 0.076-0.265l-1.49-1.549zM5.096 21.296l0.133-0.135 2.69-2.795c-0.51-0.238-0.934-0.64-1.209-1.146s-0.387-1.090-0.32-1.666c0.067-0.577 0.31-1.116 0.693-1.539s0.887-0.708 1.437-0.814c0.55-0.105 1.119-0.025 1.622 0.228s0.916 0.667 1.176 1.181c0.261 0.514 0.357 1.101 0.274 1.675s-0.341 1.106-0.736 1.518l-0.026 0.027c0.021 0.018 0.041 0.038 0.060 0.059 0.083 0.082 0.157 0.172 0.221 0.27l3.339-3.452c-0.245-0.257-0.383-0.604-0.383-0.966s0.138-0.709 0.383-0.966l-2.487-2.582c-0.247 0.256-0.581 0.4-0.93 0.4s-0.683-0.144-0.93-0.4l-6.92 7.182c0.245 0.257 0.383 0.604 0.383 0.966s-0.138 0.709-0.383 0.966l1.912 1.987zM10.967 20.377c-0.095 0.138-0.201 0.266-0.318 0.384l-0.388 0.405c0.030 0.018 0.058 0.040 0.083 0.065l0.372 0.389c0.020 0.022 0.039 0.045 0.055 0.070 0.182 0.225 0.287 0.506 0.299 0.799s-0.069 0.583-0.232 0.823c0.052 0.020 0.099 0.051 0.138 0.092l0.372 0.387c0.020 0.022 0.039 0.047 0.055 0.073 0.192 0.242 0.296 0.545 0.296 0.858s-0.105 0.616-0.296 0.858c0.017 0.012 0.033 0.025 0.047 0.041l0.372 0.387c0.020 0.023 0.038 0.048 0.055 0.073 0.867 1.23-0.167 2.273-0.997 3.117l-0.214 0.222-0.925 1.008-0.031 0.030c-0.846 0.811-1.688 1.011-2.659 1.257l-0.555 0.143h-0.016c-0.463 0.143-0.952 0.179-1.43 0.105-0.429-0.076-0.824-0.287-1.133-0.606l-3.227-3.365c-0.157-0.151-0.272-0.342-0.333-0.555s-0.067-0.438-0.016-0.654c0.118-0.467 0.336-0.901 0.638-1.268l0.849-5.074v-0.022c0-0.062 0.021-0.132 0.034-0.211l-1.664-1.725 10.98-11.397 6.295 6.534-6.508 6.755z"></path>
        </symbol>
        <symbol id="icon-scooter-delivery" viewBox="0 0 47 32">
            <path d="M11.173 4.856l1.803 0.034-3.988 13.013c0.55 0.135 1.070 0.297 1.56 0.481-0.482-0.18-0.991-0.338-1.529-0.473-3.499-0.777-6.391 0.357-8.789 3.053l15.673 7.316c0.099-0.77 0.144-1.491 0.129-2.171 0.004 0.098 0.011 0.199 0.011 0.3h14.561c0.004 3.091 2.539 5.592 5.662 5.592s5.658-2.505 5.662-5.592h4.766c0.33-6.411-2.729-11.342-8.087-11.815h7.21c0.573 0 1.040-0.466 1.040-1.029v-1.13c0-0.56-0.463-1.014-1.024-1.014h-0.091v-7.744c0-0.507-0.421-0.924-0.933-0.924h-13.434c-0.512 0-0.934 0.417-0.934 0.924v7.74h-6.641c-0.702-0.023-1.074 0.293-1.078 0.988v3.628c2.99 2.328 3.446 5.968 0.717 8.018h-4.425c-0.114-3.489-2.129-5.615-5.476-7.966l1.996-6.088c0.824-1.893 0.281-3.327-0.922-4.33 0.376-1.194 0.645-2.216 0.562-3.050l2.091 0.428c0.679 0.139 0.854 0.379 1.074-0.27 0.038-0.113 0.068-0.222 0.087-0.334 0.171-0.89 0.064-0.83-0.664-0.969l-2.231-0.428h-0.664l-0.82-0.454c-0.49-0.278-0.998-0.443-1.518-0.511l-0.717-0.045c-0.736 0-1.564-0.203-1.989 0.469-0.008 0.011-0.011 0.053-0.015 0.113-0.3 0.101-0.558 0.323-0.751 0.627-0.239 0.368-0.383 0.871-0.383 1.42s0.148 1.052 0.383 1.42c0.266 0.413 0.649 0.676 1.089 0.687 0.254 0.18 0.657 0.079 1.028 0.086zM39.366 9.152h4.729v0.822h-4.728v-0.822zM35.772 3.56h3.416v3.673l-1.791-1.375-1.624 1.375v-3.673zM39.366 11.293h4.729v0.822h-4.728v-0.822zM3.23 22.368l5.047 2.366-1.639-0.744c-1.127 0.237-1.97 1.228-1.97 2.411 0 1.363 1.116 2.467 2.493 2.467s2.493-1.104 2.493-2.467c0-0.421-0.106-0.815-0.292-1.164l3.446 1.615c-0.232 2.884-2.672 5.153-5.643 5.153-3.127 0-5.662-2.509-5.662-5.603-0.008-1.585 0.657-3.016 1.727-4.033zM9.818 1.577c0.023 0.721 0.072 1.649 0.106 2.272-0.061-0.053-0.121-0.12-0.175-0.207-0.159-0.244-0.254-0.593-0.254-0.984s0.099-0.74 0.254-0.984c0.023-0.034 0.046-0.068 0.068-0.098zM33.776 26.409h4.987c-0.004 1.36-1.12 2.456-2.493 2.456s-2.489-1.097-2.493-2.456z"></path>
        </symbol>
        <symbol id="icon-arrow" viewBox="0 0 32 32">
            <path d="M14.586 28.081c0.781 0.781 2.047 0.781 2.829 0l12.728-12.728c0.781-0.781 0.781-2.047 0-2.828s-2.047-0.781-2.828 0l-11.314 11.314-11.314-11.314c-0.781-0.781-2.047-0.781-2.828 0s-0.781 2.047 0 2.828l12.728 12.728zM14 24v2.667h4v-2.667h-4z"></path>
        </symbol>
    </defs>
</svg>
